<svg xmlns="http://www.w3.org/2000/svg" viewBox="0 0 1800 1100" role="img" aria-labelledby="title desc">
  <title id="title">しぜん千田の落ち着いた作業イメージ</title>
  <desc id="desc">緑と金色を基調にした、デスクと作業環境を表す抽象的なイラスト。</desc>
  <defs>
    <linearGradient id="bg" x1="0" y1="0" x2="1" y2="0.8">
      <stop offset="0" stop-color="#173d36"/>
      <stop offset="0.55" stop-color="#647156"/>
      <stop offset="1" stop-color="#e7b35a"/>
    </linearGradient>
  </defs>
  <rect width="1800" height="1100" fill="url(#bg)"/>
  <rect y="690" width="1800" height="410" fill="#ebe4d4" opacity="0.92"/>
  <rect x="290" y="368" width="610" height="265" fill="#16201f" opacity="0.86"/>
  <rect x="344" y="413" width="502" height="176" fill="#0f6b5d" opacity="0.88"/>
  <circle cx="1315" cy="511" r="198" fill="#16201f" opacity="0.82"/>
  <rect x="1045" y="623" width="540" height="88" fill="#0f6b5d" opacity="0.82"/>
  <g stroke="#fff" stroke-width="4" opacity="0.24">
    <path d="M80 0 252 1100"/>
    <path d="M250 0 422 1100"/>
    <path d="M420 0 592 1100"/>
    <path d="M590 0 762 1100"/>
    <path d="M760 0 932 1100"/>
    <path d="M930 0 1102 1100"/>
    <path d="M1100 0 1272 1100"/>
    <path d="M1270 0 1442 1100"/>
    <path d="M1440 0 1612 1100"/>
  </g>
</svg>
